<svg width="652" height="210" xmlns="http://www.w3.org/2000/svg">
 <style type="text/css">.st0{fill:#0091E2;}</style>

 <g>
  <title>background</title>
  <rect fill="none" id="canvas_background" height="212" width="654" y="-1" x="-1"/>
 </g>
 <g>
  <title>Layer 1</title>
  <g id="svg_19">
   <path id="svg_1" d="m307,73c-3.2,-0.1 -5.8,2.4 -5.9,5.5c0,0.1 0,0.3 0,0.4l0,28.4c-13.7,-11 -33.8,-8.8 -44.8,4.9c-4.5,5.7 -7,12.7 -7,20c-0.3,17.6 13.7,32.1 31.3,32.4c17.6,0.3 32.1,-13.7 32.4,-31.3c0,-0.4 0,-0.7 0,-1.1l0,-53.3c0,-1.6 -0.6,-3.1 -1.7,-4.2c-1.2,-1.1 -2.7,-1.7 -4.3,-1.7m-7.5,66.9c-2,4.8 -5.8,8.6 -10.6,10.7c-5,2.1 -10.6,2.1 -15.6,0c-4.8,-2 -8.5,-5.9 -10.5,-10.6c-2.1,-4.9 -2.1,-10.5 0,-15.5c2,-4.8 5.8,-8.6 10.5,-10.6c5,-2.1 10.6,-2.1 15.6,0c4.8,2.1 8.6,5.9 10.6,10.7c2.1,4.8 2.1,10.4 0,15.3" class="st0"/>
   <path id="svg_2" d="m373.5,109.7c-12.4,-12.4 -32.6,-12.4 -45,0c-6,6 -9.3,14.1 -9.3,22.5c-0.3,17.6 13.7,32.1 31.3,32.4c17.6,0.3 32.1,-13.7 32.4,-31.3c0,-0.4 0,-0.7 0,-1.1c0,-4.2 -0.8,-8.3 -2.4,-12.2c-1.6,-3.9 -4,-7.4 -7,-10.3m-4.1,30.1c-1,2.4 -2.5,4.5 -4.3,6.3c-1.8,1.8 -4,3.3 -6.3,4.3c-5,2.1 -10.6,2.1 -15.6,0c-4.8,-2 -8.6,-5.9 -10.6,-10.6c-2.1,-4.9 -2.1,-10.5 0,-15.5c2,-4.8 5.8,-8.5 10.6,-10.6c5,-2.1 10.6,-2.1 15.6,0c2.4,1 4.5,2.5 6.3,4.3c1.8,1.8 3.3,4 4.3,6.3c2.1,5.1 2.1,10.7 0,15.5" class="st0"/>
   <path id="svg_3" d="m505.2,106.2c0,-0.8 -0.2,-1.6 -0.5,-2.3c-0.3,-0.7 -0.8,-1.3 -1.3,-1.9c-0.5,-0.5 -1.2,-1 -1.9,-1.3c-0.7,-0.3 -1.5,-0.5 -2.3,-0.5c-1.1,0 -2.2,0.3 -3.2,0.9l-34,22.1l0,-44.2c0,-1.6 -0.6,-3.1 -1.7,-4.2c-1.1,-1.1 -2.6,-1.8 -4.2,-1.8c-3.3,0 -5.9,2.6 -6,5.9c0,0 0,0 0,0.1l0,79c0,1.6 0.6,3.1 1.7,4.2c1.1,1.2 2.6,1.8 4.2,1.8c1.6,0 3.1,-0.6 4.2,-1.8c1.1,-1.1 1.8,-2.6 1.7,-4.2l0,-20.5l6.9,-4.5l26.3,29.5c1.1,1 2.5,1.6 4,1.5c0.8,0 1.6,-0.1 2.3,-0.5c0.7,-0.3 1.3,-0.7 1.9,-1.3c0.5,-0.6 1,-1.2 1.3,-1.9c0.3,-0.7 0.5,-1.5 0.5,-2.3c0,-1.5 -0.6,-3 -1.6,-4.1l-24.4,-27.5l23.8,-15.5c1.6,-1 2.4,-2.8 2.3,-4.7" class="st0"/>
   <path id="svg_4" d="m406.5,118c1.8,-1.8 4,-3.3 6.4,-4.3c2.5,-1 5.1,-1.6 7.8,-1.6c2.4,0 4.7,0.4 6.9,1.2c2.2,0.9 4.3,2.1 6.1,3.7c1.1,0.9 2.5,1.3 3.9,1.3c1.6,0.1 3.2,-0.5 4.3,-1.7c1.1,-1.1 1.7,-2.7 1.7,-4.3c0,-1.7 -0.7,-3.4 -2.1,-4.5c-5.7,-5.1 -13.1,-7.9 -20.8,-7.7c-17.6,0 -31.9,14.3 -31.9,31.9c0,17.6 14.2,31.8 31.7,31.9c7.7,0 15.1,-2.7 20.9,-7.7c1.2,-1.1 1.9,-2.7 1.9,-4.4c0.1,-3.2 -2.4,-5.8 -5.5,-5.9c-0.1,0 -0.3,0 -0.4,0c-1.4,0 -2.7,0.4 -3.8,1.2c-1.8,1.6 -3.8,2.8 -6,3.7c-2.2,0.8 -4.6,1.2 -6.9,1.2c-2.7,0 -5.3,-0.5 -7.8,-1.6c-2.4,-1 -4.5,-2.5 -6.4,-4.3c-7.8,-7.8 -7.8,-20.4 -0.1,-28.2c0.1,0.2 0.1,0.2 0.1,0.1" class="st0"/>
   <path id="svg_5" d="m623.3,104.3c-1.2,-1.1 -2.5,-1.9 -4,-2.4c-1.7,-0.6 -3.5,-1 -5.3,-1.2c-1.8,-0.2 -3.6,-0.3 -5.4,-0.3c-3.6,0 -7.3,0.6 -10.7,1.9c-3.4,1.2 -6.5,3 -9.3,5.2l0,-1.2c-0.1,-3.3 -2.9,-5.8 -6.2,-5.7c-3.1,0.1 -5.6,2.6 -5.7,5.7l0,51.9c0.1,3.3 2.9,5.8 6.2,5.7c3.1,-0.1 5.6,-2.6 5.7,-5.7l0,-25.9c0,-2.7 0.5,-5.3 1.6,-7.8c1,-2.4 2.4,-4.5 4.3,-6.3c1.8,-1.8 4,-3.3 6.3,-4.3c2.5,-1 5.1,-1.6 7.8,-1.6c2.7,0 5.3,0.5 7.8,1.4c0.8,0.4 1.6,0.6 2.5,0.6c0.8,0 1.6,-0.1 2.3,-0.5c0.7,-0.3 1.3,-0.7 1.9,-1.3c0.5,-0.5 1,-1.2 1.3,-1.9c0.3,-0.7 0.5,-1.5 0.5,-2.3c0.1,-1.5 -0.5,-2.9 -1.6,-4" class="st0"/>
   <path id="svg_6" d="m568.1,120c-5.1,-11.8 -16.7,-19.5 -29.5,-19.6c-17.6,0 -31.8,14.2 -31.9,31.8c0,0 0,0 0,0c0,17.6 14.3,31.9 31.9,31.9c7.6,0 15,-2.7 20.8,-7.7c0.1,-0.1 0.2,-0.2 0.2,-0.2c0.5,-0.4 1,-0.9 1.3,-1.5c1.9,-2.8 1.2,-6.5 -1.5,-8.4c-2.3,-1.5 -5.3,-1.2 -7.3,0.7c-0.2,0.2 -0.8,0.7 -0.8,0.8l-0.1,0.1c-1.7,1.4 -3.6,2.6 -5.7,3.3c-2.2,0.8 -4.5,1.2 -6.9,1.1c-2.2,0 -4.3,-0.3 -6.4,-1c-2,-0.7 -3.9,-1.6 -5.6,-2.9c-1.7,-1.2 -3.2,-2.7 -4.4,-4.4c-1.3,-1.7 -2.2,-3.7 -2.8,-5.7l45,0c1.6,0 3.1,-0.6 4.2,-1.7c1.2,-1.1 1.8,-2.6 1.7,-4.2c0.1,-4.3 -0.7,-8.5 -2.2,-12.4m-48.7,6.4c0.6,-2.1 1.5,-4 2.8,-5.7c1.2,-1.7 2.7,-3.2 4.4,-4.4c1.7,-1.2 3.6,-2.2 5.6,-2.9c2,-0.7 4.2,-1 6.3,-1c2.1,0 4.3,0.3 6.3,1c4,1.3 7.5,3.9 10,7.3c1.3,1.7 2.2,3.7 2.9,5.7l-38.3,0z" class="st0"/>
   <path id="svg_7" d="m603,155.4c-2.3,0 -4.1,1.9 -4.1,4.2c0,2.3 1.9,4.1 4.2,4.1c2.3,0 4.1,-1.9 4.1,-4.1c0,-2.4 -1.9,-4.2 -4.2,-4.2c0,0 0,0 0,0m0,7.4c-1.8,0.1 -3.3,-1.3 -3.4,-3.1c-0.1,-1.8 1.3,-3.3 3.1,-3.4c1.8,-0.1 3.3,1.3 3.4,3.1c0,0.1 0,0.1 0,0.2c0.1,1.7 -1.3,3.2 -3,3.2c0,0 0,0 -0.1,0" class="st0"/>
   <path id="svg_8" d="m604,159.6l0,0c0.5,-0.1 0.8,-0.5 0.8,-1c0,-0.4 -0.1,-0.7 -0.4,-0.9c-0.4,-0.2 -0.9,-0.3 -1.4,-0.3c-0.5,0 -1.1,0 -1.6,0.1l0,4.1l0.9,0l0,-1.6l0.4,0c0.5,0 0.8,0.2 0.9,0.6c0.1,0.3 0.2,0.7 0.3,1l1,0c-0.2,-0.3 -0.3,-0.7 -0.3,-1c0.1,-0.4 -0.2,-0.8 -0.6,-1m-1.2,-0.3l-0.5,0l0,-1.2c0.2,0 0.4,0 0.5,0c0.6,0 0.9,0.3 0.9,0.6c0.1,0.4 -0.4,0.7 -0.9,0.6" class="st0"/>
   <path id="svg_9" d="m238.4,86.4c-0.6,-0.5 -6,-4.6 -17.6,-4.6c-3,0 -6.1,0.3 -9.1,0.8c-2.2,-15.3 -14.9,-22.7 -15.4,-23.1l-3.1,-1.8l-2,2.9c-2.5,3.9 -4.4,8.3 -5.5,12.8c-2.1,8.7 -0.8,16.9 3.6,23.9c-5.3,3 -13.9,3.7 -15.7,3.8l-142,0c-3.7,0 -6.7,3 -6.7,6.7c-0.2,12.4 1.9,24.8 6.2,36.5c4.9,12.8 12.2,22.3 21.6,28.1c10.6,6.5 27.9,10.2 47.4,10.2c8.8,0 17.6,-0.8 26.3,-2.4c12.1,-2.2 23.7,-6.4 34.4,-12.5c8.8,-5.1 16.7,-11.6 23.4,-19.2c11.3,-12.7 18,-26.9 22.9,-39.5c0.7,0 1.3,0 2,0c12.3,0 19.9,-4.9 24.1,-9.1c2.8,-2.6 4.9,-5.8 6.4,-9.4l0.9,-2.6l-2.1,-1.5z" class="st0"/>
   <path id="svg_10" d="m44.8,97l19,0c0.9,0 1.7,-0.7 1.7,-1.7l0,0l0,-17c0,-0.9 -0.7,-1.7 -1.7,-1.7c0,0 0,0 0,0l-19,0c-0.9,0 -1.7,0.7 -1.7,1.7c0,0 0,0 0,0l0,17c0.1,1 0.8,1.7 1.7,1.7l0,0" class="st0"/>
   <path id="svg_11" d="m71,97l19,0c0.9,0 1.7,-0.7 1.7,-1.7l0,0l0,-17c0,-0.9 -0.7,-1.7 -1.7,-1.7c0,0 0,0 0,0l-19,0c-0.9,0 -1.7,0.7 -1.7,1.7l0,17c0.1,1 0.8,1.7 1.7,1.7" class="st0"/>
   <path id="svg_12" d="m97.7,97l19,0c0.9,0 1.7,-0.7 1.7,-1.7l0,0l0,-17c0,-0.9 -0.7,-1.7 -1.7,-1.7c0,0 0,0 0,0l-19,0c-0.9,0 -1.7,0.7 -1.7,1.7c0,0 0,0 0,0l0,17c0,1 0.7,1.7 1.7,1.7l0,0" class="st0"/>
   <path id="svg_13" d="m124,97l19,0c0.9,0 1.7,-0.7 1.7,-1.7l0,-17c0,-0.9 -0.7,-1.7 -1.7,-1.7l0,0l-19,0c-0.9,0 -1.7,0.7 -1.7,1.7c0,0 0,0 0,0l0,17c0,1 0.8,1.7 1.7,1.7l0,0" class="st0"/>
   <path id="svg_14" d="m71,72.7l19,0c0.9,0 1.7,-0.8 1.7,-1.7l0,-17c0,-0.9 -0.7,-1.7 -1.7,-1.7l0,0l-19,0c-0.9,0 -1.7,0.7 -1.7,1.7l0,17c0.1,0.9 0.8,1.7 1.7,1.7" class="st0"/>
   <path id="svg_15" d="m97.7,72.7l19,0c0.9,0 1.7,-0.8 1.7,-1.7l0,-17c0,-0.9 -0.7,-1.7 -1.7,-1.7l0,0l-19,0c-0.9,0 -1.7,0.7 -1.7,1.7l0,0l0,17c0,0.9 0.7,1.7 1.7,1.7" class="st0"/>
   <path id="svg_16" d="m124,72.7l19,0c0.9,0 1.7,-0.8 1.7,-1.7l0,-17c0,-0.9 -0.8,-1.7 -1.7,-1.7l-19,0c-0.9,0 -1.7,0.7 -1.7,1.7l0,0l0,17c0,0.9 0.8,1.7 1.7,1.7" class="st0"/>
   <path id="svg_17" d="m124,48.3l19,0c0.9,0 1.7,-0.7 1.7,-1.7l0,-17c0,-0.9 -0.8,-1.7 -1.7,-1.7l-19,0c-0.9,0 -1.7,0.7 -1.7,1.7l0,0l0,17c0,0.9 0.8,1.7 1.7,1.7" class="st0"/>
   <path id="svg_18" d="m150.5,97l19,0c0.9,0 1.7,-0.7 1.7,-1.7l0,-17c0,-0.9 -0.7,-1.7 -1.7,-1.7l0,0l-19,0c-0.9,0 -1.7,0.7 -1.7,1.7c0,0 0,0 0,0l0,17c0.1,1 0.8,1.7 1.7,1.7" class="st0"/>
  </g>
 </g>
</svg>